<?xml version="1.0" standalone="no"?>
<!DOCTYPE svg PUBLIC "-//W3C//DTD SVG 20010904//EN"
 "http://www.w3.org/TR/2001/REC-SVG-20010904/DTD/svg10.dtd">
<svg version="1.0" xmlns="http://www.w3.org/2000/svg"
 width="534.000000pt" height="580.000000pt" viewBox="0 0 534.000000 580.000000"
 preserveAspectRatio="xMidYMid meet">

<g transform="translate(0.000000,580.000000) scale(0.100000,-0.100000)"
fill="#000000" stroke="none">
<path d="M2460 5724 c-433 -52 -792 -240 -1134 -595 -281 -291 -499 -653 -677
-1121 -24 -65 -47 -118 -50 -118 -3 0 -43 50 -88 110 -45 61 -85 110 -89 110
-4 0 -19 -15 -33 -33 -15 -17 -108 -133 -208 -257 -99 -124 -180 -231 -179
-238 2 -7 74 -41 162 -77 87 -35 160 -66 162 -68 10 -10 -37 -243 -72 -360 -5
-17 -4 -17 33 0 21 10 65 34 98 54 34 20 141 82 238 138 l178 102 114 -101
c64 -56 118 -106 121 -111 13 -21 22 -5 29 49 11 91 44 235 91 399 43 150 59
197 131 378 230 579 643 960 1158 1071 120 25 331 23 462 -4 236 -51 455 -165
651 -339 320 -286 581 -819 715 -1458 12 -57 25 -104 28 -106 4 -2 62 48 130
111 67 63 125 114 129 113 10 -3 377 -230 425 -263 33 -23 129 -70 141 -70 2
0 -8 30 -22 68 -37 96 -91 254 -99 291 -4 21 -3 31 5 31 12 0 322 108 328 115
5 5 -379 554 -388 555 -3 0 -44 -49 -90 -110 -46 -60 -87 -110 -90 -110 -3 0
-18 35 -34 78 -88 237 -226 525 -343 714 -134 218 -353 473 -533 623 -245 203
-539 346 -836 405 -87 18 -152 23 -319 25 -115 2 -226 1 -245 -1z m543 -88
c564 -134 1010 -494 1349 -1091 126 -222 284 -600 353 -848 16 -56 18 -58 36
-41 10 9 55 69 99 133 44 64 88 126 98 139 l18 23 128 -181 c71 -100 127 -182
125 -184 -2 -2 -49 -18 -104 -36 -106 -34 -205 -70 -205 -74 0 -1 20 -62 45
-136 25 -74 45 -138 45 -142 0 -4 -102 60 -227 142 l-227 150 -97 -103 -97
-102 -7 40 c-34 193 -126 488 -215 695 -133 308 -265 507 -469 710 -208 206
-433 333 -711 400 -129 32 -391 35 -520 6 -410 -90 -763 -342 -1013 -723 -60
-92 -158 -266 -157 -278 0 -3 -15 -38 -33 -78 -71 -150 -169 -470 -208 -677
-6 -36 -14 -67 -16 -69 -2 -3 -41 32 -87 78 l-83 83 -29 -15 c-16 -8 -119 -67
-228 -131 -110 -64 -200 -115 -202 -113 -1 1 12 65 30 142 l33 140 -86 33
c-47 18 -117 44 -154 58 -60 23 -66 28 -55 43 51 65 260 311 269 317 15 9 31
-13 130 -179 46 -75 86 -134 89 -130 4 5 12 28 19 53 23 82 142 393 202 525
170 380 359 665 604 911 267 268 492 403 820 495 146 40 227 49 435 44 165 -3
211 -7 303 -29z"/>
<path d="M2628 5438 c-3 -72 -6 -83 -22 -86 -10 -2 -22 1 -26 7 -5 9 -14 9
-36 1 l-29 -12 28 -24 c36 -31 98 -33 127 -4 17 17 20 33 20 110 l0 90 -30 0
-29 0 -3 -82z"/>
<path d="M2756 5503 c-3 -10 -8 -44 -12 -76 -11 -94 15 -132 99 -143 76 -11
107 36 119 176 3 33 1 35 -28 38 l-31 3 -7 -70 c-9 -92 -40 -125 -81 -85 -10
11 -14 27 -11 47 20 128 20 127 -13 127 -20 0 -31 -6 -35 -17z"/>
<path d="M2287 5480 c-38 -10 -71 -21 -74 -23 -4 -5 29 -165 42 -204 3 -9 17
-8 57 2 29 7 65 16 81 19 17 4 27 13 27 25 0 28 -8 30 -60 16 -52 -14 -60 -12
-60 16 0 12 10 21 28 25 48 10 52 13 52 35 0 19 -4 21 -37 14 -21 -4 -42 -7
-47 -8 -6 -1 -12 6 -14 15 -3 14 7 21 42 30 38 10 46 16 46 35 0 27 5 26 -83
3z"/>
<path d="M3011 5397 c-36 -124 -37 -133 -11 -140 18 -4 24 1 36 28 8 19 14 40
14 47 0 7 4 19 9 26 6 9 14 -10 26 -58 14 -57 23 -74 42 -83 14 -6 27 -7 32
-1 5 5 22 52 38 106 l30 96 -25 11 c-13 7 -26 10 -27 9 -1 -2 -10 -30 -20 -62
l-19 -59 -20 73 c-20 70 -34 87 -71 89 -5 1 -21 -36 -34 -82z"/>
<path d="M2113 5429 c-28 -10 -28 -22 -3 -78 11 -24 20 -45 20 -48 0 -2 -27
15 -60 38 -56 39 -61 41 -90 29 -17 -7 -29 -18 -26 -24 2 -6 21 -52 41 -103
36 -89 38 -91 61 -81 29 13 29 15 5 78 -11 27 -17 50 -15 50 3 0 29 -18 58
-40 57 -43 72 -47 99 -27 16 11 15 19 -23 111 -22 55 -41 100 -43 102 -1 1
-12 -2 -24 -7z"/>
<path d="M3245 5298 c-22 -51 -41 -95 -43 -99 -2 -4 7 -13 19 -19 29 -16 40
-4 84 100 33 79 34 86 18 98 -9 6 -22 12 -28 12 -6 0 -29 -41 -50 -92z"/>
<path d="M1856 5307 c-17 -13 -16 -18 22 -93 22 -43 47 -87 54 -97 13 -18 15
-18 37 0 l24 19 -49 89 c-27 49 -54 90 -59 92 -6 2 -19 -3 -29 -10z"/>
<path d="M3382 5297 c-27 -12 -62 -75 -62 -110 0 -39 41 -91 85 -105 66 -22
123 12 144 87 26 89 -80 171 -167 128z m102 -53 c20 -20 20 -39 -1 -74 -23
-40 -55 -53 -83 -33 -18 12 -21 22 -16 46 7 37 42 77 67 77 10 0 25 -7 33 -16z"/>
<path d="M1735 5228 c-11 -6 -41 -26 -67 -45 l-47 -34 61 -87 c34 -48 63 -89
64 -91 2 -2 14 5 28 16 l24 19 -20 32 c-28 45 -15 55 37 30 42 -21 44 -21 71
-3 l28 18 -44 22 c-42 22 -44 24 -42 63 3 32 -1 43 -20 56 -26 19 -45 20 -73
4z m33 -60 c9 -9 8 -16 -5 -30 -20 -22 -36 -23 -53 -3 -11 13 -10 18 6 30 23
18 36 19 52 3z"/>
<path d="M3576 5114 c-63 -82 -70 -100 -44 -117 14 -9 23 -6 46 16 16 15 31
25 34 22 3 -3 3 -27 0 -53 -4 -43 -1 -50 21 -65 24 -15 25 -15 31 6 3 12 6 31
6 42 0 15 10 25 34 33 44 16 64 59 44 95 -12 23 -95 97 -108 97 -3 0 -32 -34
-64 -76z m106 -11 c10 -9 18 -22 18 -30 0 -22 -29 -27 -50 -8 -15 14 -17 20
-7 36 14 23 16 23 39 2z"/>
<path d="M1509 5052 l-64 -59 54 -59 c29 -32 60 -68 68 -81 9 -13 19 -23 22
-23 11 0 131 110 131 120 0 23 -37 18 -73 -11 -35 -28 -40 -30 -54 -16 -14 14
-12 19 21 47 29 26 34 35 25 46 -17 20 -29 17 -61 -13 -22 -21 -31 -24 -40
-15 -9 9 -3 21 27 52 35 36 38 42 24 55 -14 14 -22 10 -80 -43z"/>
<path d="M1376 4921 c-22 -24 -20 -38 9 -57 30 -20 30 -22 0 -59 l-24 -29 -31
22 c-32 24 -44 23 -60 -8 -8 -16 2 -28 71 -85 l81 -67 21 21 21 21 -32 33 -33
34 21 26 c27 33 31 33 71 0 l32 -27 19 24 20 25 -48 43 c-27 24 -65 56 -85 72
-35 28 -37 29 -53 11z"/>
<path d="M3864 4932 c-28 -18 -34 -50 -19 -94 17 -49 19 -78 6 -78 -15 0 -51
51 -51 71 0 14 -7 19 -26 19 -24 0 -26 -3 -20 -32 19 -94 130 -146 164 -76 11
24 10 34 -9 78 -12 28 -19 53 -16 57 12 12 38 -8 48 -37 8 -22 17 -30 36 -30
21 0 23 3 18 23 -23 75 -91 126 -131 99z"/>
<path d="M3985 4746 c-36 -16 -70 -52 -80 -84 -15 -50 32 -123 88 -137 25 -7
27 -5 27 24 0 23 -5 31 -18 31 -24 0 -42 19 -42 46 0 23 51 74 74 74 23 0 56
-32 56 -54 0 -22 16 -36 41 -36 14 0 11 47 -5 78 -31 60 -87 83 -141 58z"/>
<path d="M1165 4644 c-47 -69 -56 -87 -44 -95 21 -13 26 -11 46 16 l18 26 65
-46 c36 -24 70 -45 77 -45 11 0 33 30 33 44 0 3 -31 27 -70 52 l-70 47 21 33
c20 32 20 33 1 43 -17 9 -26 0 -77 -75z"/>
<path d="M4127 4550 c-26 -16 -65 -39 -87 -50 -37 -19 -39 -22 -28 -45 13 -29
15 -30 61 -10 37 15 42 13 66 -32 10 -19 7 -24 -24 -43 -39 -24 -41 -28 -22
-54 13 -17 19 -15 105 34 51 28 92 53 92 55 0 10 -24 55 -29 55 -3 0 -20 -9
-38 -19 l-32 -20 -20 34 -20 34 34 21 c31 19 33 23 23 46 -14 31 -24 30 -81
-6z"/>
<path d="M1047 4449 l-17 -31 64 -77 c88 -105 90 -106 106 -76 11 21 11 27 -2
42 -14 16 -14 21 9 56 18 29 29 37 43 32 14 -4 23 2 35 24 18 35 23 33 -102
51 -107 15 -116 14 -136 -21z m110 -37 c20 -6 20 -9 7 -27 -14 -19 -15 -19
-41 8 -25 24 -25 27 -8 26 11 -1 30 -4 42 -7z"/>
<path d="M4245 4323 c-60 -16 -101 -74 -90 -129 3 -19 20 -51 37 -70 31 -35
34 -36 87 -32 46 4 59 10 83 37 31 35 36 73 14 124 -24 57 -76 85 -131 70z
m85 -82 c15 -30 12 -48 -12 -71 -26 -24 -75 -26 -100 -3 -24 22 -23 39 7 68
31 32 89 35 105 6z"/>
<path d="M973 4278 c-52 -57 -57 -112 -15 -158 75 -84 208 -37 205 73 -1 47
-7 53 -38 39 -22 -10 -24 -15 -15 -32 26 -49 -45 -82 -98 -44 -28 19 -30 68
-2 87 13 9 17 20 13 35 -7 28 -24 28 -50 0z"/>
<path d="M4322 4060 c-77 -35 -88 -125 -24 -192 21 -23 34 -28 74 -28 39 0 54
6 83 31 29 26 35 38 35 71 0 47 -20 89 -56 117 -33 26 -57 26 -112 1z m106
-62 c20 -20 14 -65 -10 -82 -27 -19 -79 -21 -96 -4 -23 23 -14 66 16 82 33 18
74 20 90 4z"/>
<path d="M846 3976 c-9 -22 -25 -66 -36 -96 -15 -41 -17 -56 -7 -62 19 -12 37
-9 37 5 0 7 6 21 13 31 12 16 16 16 81 -8 85 -32 90 -32 104 0 13 28 17 25
-101 68 -48 18 -48 18 -42 56 5 32 3 38 -14 43 -16 4 -23 -3 -35 -37z"/>
<path d="M4430 3798 c-52 -16 -97 -32 -99 -34 -2 -2 6 -42 19 -88 21 -79 24
-85 42 -75 20 11 21 20 3 92 -6 24 -3 26 74 52 45 15 81 30 81 33 0 17 -13 52
-19 52 -3 -1 -49 -15 -101 -32z"/>
<path d="M787 3761 c-50 -60 -31 -161 29 -161 25 0 42 14 78 63 15 20 32 35
37 32 15 -10 10 -41 -11 -67 -17 -22 -17 -28 -6 -44 12 -16 16 -17 31 -4 10 8
24 29 32 47 30 72 6 133 -52 133 -34 0 -37 -3 -89 -76 -13 -19 -21 -23 -29
-15 -8 8 -6 21 7 46 14 26 17 40 10 56 -10 21 -11 21 -37 -10z"/>
<path d="M1660 4387 c0 -2 12 -62 26 -133 16 -81 34 -145 50 -171 27 -46 88
-100 149 -131 40 -20 59 -46 279 -367 7 -9 1 -31 -18 -70 -109 -222 -146 -384
-146 -631 0 -236 32 -376 136 -593 l54 -114 -120 -181 c-173 -261 -379 -582
-386 -603 -15 -42 230 301 456 639 36 54 68 97 72 98 3 0 28 -30 54 -68 78
-109 175 -212 277 -297 149 -123 132 -119 224 -50 100 75 253 230 323 328 30
42 58 77 62 77 4 0 51 -66 105 -146 216 -323 412 -598 421 -590 5 6 -131 219
-337 532 l-167 253 52 106 c56 114 84 196 115 338 25 115 27 353 3 477 -22
117 -77 278 -131 382 l-45 87 24 38 c13 21 69 106 124 188 88 131 107 153 144
170 65 29 133 101 158 166 19 52 64 269 55 269 -2 0 -62 -52 -133 -115 -138
-124 -165 -162 -176 -250 -8 -58 -17 -75 -142 -258 l-94 -138 -73 98 c-40 54
-106 137 -148 184 -80 92 -220 219 -240 219 -20 0 -201 -164 -276 -251 -39
-45 -95 -117 -125 -161 l-54 -79 -24 33 c-51 69 -185 264 -195 283 -6 11 -14
40 -18 65 -9 58 -30 109 -58 139 -28 30 -257 234 -257 228z m1101 -464 c258
-267 422 -542 478 -806 16 -74 21 -134 22 -248 0 -82 -4 -155 -8 -163 -6 -10
-34 28 -93 125 -47 77 -86 144 -88 148 -1 5 12 11 30 15 32 7 32 7 13 22 -17
13 -18 16 -5 24 8 5 24 10 35 10 14 0 8 8 -23 26 -45 27 -45 28 -5 82 l24 32
-30 0 c-58 0 -65 8 -35 47 l26 35 -43 -4 -44 -3 3 42 3 42 -33 -10 c-56 -16
-61 -13 -55 30 4 34 2 38 -14 34 -12 -4 -25 5 -39 28 -21 32 -23 19 -5 -25 6
-14 4 -17 -11 -14 -13 2 -20 13 -22 36 -4 38 -8 39 -37 12 l-22 -21 -27 35
-26 35 0 200 0 201 -55 0 -55 0 0 -185 c0 -183 0 -186 -27 -235 -16 -27 -31
-50 -34 -50 -3 0 -23 12 -44 26 -45 30 -57 23 -58 -35 -1 -23 -2 -41 -4 -41
-2 0 -20 7 -40 15 -19 8 -38 15 -41 15 -2 0 -2 -25 2 -56 6 -54 6 -55 -16 -49
-13 4 -29 13 -37 19 -12 9 -13 5 -8 -27 5 -35 5 -36 -14 -26 -32 16 -33 4 -3
-20 27 -21 23 -25 -28 -21 -32 2 -34 -7 -14 -55 17 -39 17 -39 -18 -25 -16 6
-27 6 -31 0 -9 -14 43 -32 69 -24 15 4 13 0 -9 -15 -16 -12 -38 -21 -48 -21
-36 0 -14 -34 28 -43 22 -5 45 -10 52 -12 7 -2 -9 -35 -40 -84 -29 -44 -72
-112 -96 -151 -27 -44 -48 -67 -54 -61 -5 5 -9 78 -9 162 -1 227 37 389 139
593 61 125 109 197 200 308 67 81 210 217 229 218 6 0 49 -39 95 -87z m-141
-603 c0 -4 -19 -16 -42 -26 -92 -41 -152 -116 -172 -216 -11 -54 -16 -64 -36
-66 -23 -4 -23 -3 -17 62 11 113 74 203 180 256 57 29 63 30 74 13 7 -9 13
-20 13 -23z m227 1 c48 -24 109 -85 133 -131 22 -44 43 -141 34 -163 -8 -22
-44 -22 -44 0 0 9 -7 43 -16 75 -21 74 -73 134 -153 177 -34 18 -61 34 -61 37
0 3 5 14 10 24 11 21 24 19 97 -19z m-227 -191 l0 -120 -80 0 -80 0 0 28 c0
75 50 156 118 192 21 10 38 19 40 20 1 0 2 -54 2 -120z m180 88 c61 -37 95
-87 109 -162 l8 -46 -93 0 -94 0 0 120 c0 66 4 120 8 120 4 0 32 -15 62 -32z
m-198 -238 l58 0 0 -100 0 -100 -215 0 -216 0 12 21 c6 12 36 60 66 107 l55
85 91 -7 c49 -3 116 -6 149 -6z m452 -100 l66 -100 -205 0 -205 0 0 100 0 100
138 0 139 0 67 -100z m-394 -180 l0 -30 -245 0 c-135 0 -245 3 -245 8 0 4 7
18 16 30 15 22 19 22 245 22 l229 0 0 -30z m492 13 c37 -44 41 -43 -201 -43
l-231 0 0 30 0 30 208 0 c187 0 211 -2 224 -17z m-697 -163 l0 -85 -67 -3
c-68 -3 -68 -3 -68 -32 0 -17 5 -30 10 -30 6 0 10 -28 10 -65 l0 -65 -33 0
c-20 0 -40 7 -49 18 -19 21 -90 187 -112 261 -29 98 -39 92 147 89 l162 -3 0
-85z m785 71 c0 -22 -64 -203 -97 -273 l-36 -78 -69 0 -68 0 0 65 c0 37 4 65
10 65 6 0 10 13 10 29 0 27 -3 30 -37 33 l-38 3 -3 83 -3 82 166 0 c92 0 165
-4 165 -9z m-380 -81 l0 -80 -172 2 -173 3 -3 78 -3 77 176 0 175 0 0 -80z
m-47 -150 l97 0 0 -60 0 -60 -255 0 -255 0 0 59 c0 57 1 60 28 64 15 3 86 3
157 1 72 -2 174 -4 228 -4z m243 -192 c1 -2 -18 -31 -42 -66 l-45 -62 -287 0
-287 0 -40 62 c-22 34 -42 66 -44 71 -3 9 736 4 745 -5z m-172 -207 c7 -11
-77 -105 -145 -162 -42 -35 -53 -40 -72 -32 -27 13 -207 181 -207 194 0 12
417 12 424 0z"/>
<path d="M3486 2873 c53 -116 64 -153 64 -213 0 -60 0 -60 30 -60 l30 0 0 70
c0 69 5 86 64 223 l16 37 -33 0 c-31 0 -34 -4 -51 -50 -10 -28 -22 -52 -26
-55 -4 -3 -16 19 -26 48 -18 49 -21 52 -57 55 l-37 3 26 -58z"/>
<path d="M3710 2891 c0 -22 5 -41 13 -44 9 -3 9 -10 -2 -31 -11 -19 -12 -29
-4 -37 19 -19 45 35 47 93 1 51 0 53 -26 56 -26 3 -28 1 -28 -37z"/>
<path d="M3865 2918 c-2 -7 -22 -82 -44 -165 l-39 -153 33 0 c30 0 33 3 39 35
6 33 9 35 45 35 36 0 39 -2 45 -35 6 -32 10 -35 40 -35 l33 0 -42 163 -42 162
-31 3 c-20 2 -34 -2 -37 -10z m50 -150 c7 -35 5 -38 -15 -38 -21 0 -22 3 -16
38 3 20 6 44 6 52 1 25 17 -9 25 -52z"/>
<path d="M4040 2766 l0 -166 73 0 c85 0 104 13 114 74 4 29 1 44 -16 67 -20
27 -21 31 -6 51 21 30 19 81 -4 109 -16 19 -30 24 -90 27 l-71 4 0 -166z m104
91 c26 -19 17 -51 -17 -55 -24 -3 -27 0 -27 26 0 43 13 52 44 29z m16 -132 c7
-8 10 -25 6 -40 -5 -20 -13 -25 -36 -25 -27 0 -30 3 -30 33 0 19 3 37 7 40 11
12 40 8 53 -8z"/>
<path d="M4325 2918 c-3 -7 -23 -82 -44 -165 l-39 -153 33 0 c30 0 33 3 39 36
7 33 9 35 44 32 31 -3 38 -7 46 -35 8 -28 13 -33 41 -33 l32 0 -41 165 -41
165 -33 0 c-18 0 -35 -6 -37 -12z m51 -145 c6 -39 5 -43 -15 -43 -23 0 -26 14
-15 69 8 40 21 29 30 -26z"/>
<path d="M4470 2895 c0 -32 2 -35 30 -35 l30 0 0 -130 0 -130 30 0 30 0 0 114
c0 63 3 121 6 130 4 10 18 16 35 16 26 0 29 3 29 35 l0 35 -95 0 -95 0 0 -35z"/>
<path d="M4732 2914 c-38 -26 -54 -71 -54 -150 0 -119 48 -184 126 -170 40 8
63 31 82 83 30 84 6 215 -44 242 -30 16 -84 13 -110 -5z m82 -60 c22 -22 25
-138 5 -176 -14 -26 -46 -22 -65 7 -23 36 -16 152 11 171 24 18 30 18 49 -2z"/>
<path d="M140 2745 l0 -155 65 0 c62 0 65 1 65 24 0 22 -5 25 -42 28 -42 3
-43 4 -43 38 0 32 3 35 33 38 28 3 32 7 32 33 0 27 -3 29 -36 29 -33 0 -35 2
-32 28 3 23 8 27 41 30 34 3 37 6 37 33 0 29 0 29 -60 29 l-60 0 0 -155z"/>
<path d="M290 2745 l0 -155 25 0 c14 0 24 3 24 8 -1 4 0 45 1 92 l3 85 9 -55
c28 -157 41 -162 62 -24 l14 89 1 -97 c1 -98 1 -98 26 -98 l25 0 0 155 0 155
-34 0 -34 0 -7 -61 c-14 -117 -21 -122 -35 -26 l-13 87 -34 0 -33 0 0 -155z"/>
<path d="M510 2745 c0 -148 1 -155 20 -155 19 0 20 7 20 92 0 50 2 89 5 86 4
-4 35 -159 35 -175 0 -2 4 -3 9 -3 5 0 15 26 21 58 23 117 28 122 29 30 1 -81
3 -88 21 -88 19 0 20 7 20 155 l0 155 -29 0 c-26 0 -29 -4 -40 -57 -6 -31 -11
-67 -11 -80 0 -47 -17 -13 -24 47 -10 82 -13 90 -47 90 l-29 0 0 -155z"/>
<path d="M730 2762 c0 -151 4 -163 61 -177 20 -5 33 0 55 18 l29 25 0 134 c0
130 0 133 -22 136 -23 3 -23 2 -23 -116 0 -98 -3 -122 -16 -133 -31 -26 -44
13 -44 138 0 106 -1 113 -20 113 -19 0 -20 -7 -20 -138z"/>
<path d="M910 2745 c0 -148 1 -155 20 -155 18 0 20 7 21 63 1 34 0 73 -1 87
-3 41 13 13 41 -68 20 -61 30 -78 47 -80 22 -3 22 -2 22 152 0 149 -1 156 -20
156 -19 0 -20 -7 -21 -92 l0 -93 -30 93 c-27 83 -32 92 -54 92 l-25 0 0 -155z"/>
<path d="M1110 2814 c22 -63 30 -107 30 -156 0 -66 1 -68 25 -68 24 0 25 2 25
63 0 44 9 90 30 152 17 49 30 90 30 92 0 2 -11 3 -25 3 -20 0 -26 -7 -36 -42
-17 -65 -21 -66 -39 -12 -14 40 -21 50 -43 52 l-26 3 29 -87z"/>
<path d="M1270 2745 l0 -155 65 0 c62 0 65 1 65 24 0 22 -5 25 -42 28 -42 3
-43 4 -43 38 0 32 3 35 33 38 28 3 32 7 32 33 0 26 -3 29 -30 29 -27 0 -30 3
-30 30 0 28 3 30 35 30 32 0 35 2 35 30 l0 30 -60 0 -60 0 0 -155z"/>
<path d="M1420 2813 c0 -48 3 -118 7 -155 5 -57 9 -68 24 -68 16 0 19 11 21
83 l3 82 25 -80 c21 -65 30 -81 48 -83 22 -3 22 -3 22 152 0 149 -1 156 -20
156 -18 0 -20 -7 -21 -87 l-1 -88 -27 85 c-24 77 -29 85 -54 88 l-27 3 0 -88z"/>
<path d="M1622 2818 c25 -67 30 -97 29 -155 -2 -72 -2 -73 24 -73 24 0 25 2
25 63 0 44 9 90 30 152 17 49 30 90 30 92 0 2 -11 3 -24 3 -19 0 -26 -8 -36
-45 -7 -25 -16 -48 -20 -50 -5 -3 -13 18 -20 45 -11 45 -15 50 -40 50 l-28 0
30 -82z"/>
<path d="M1780 2745 l0 -155 65 0 c63 0 65 1 65 25 0 23 -4 25 -40 25 l-40 0
0 40 c0 39 1 40 33 40 29 0 33 3 32 28 0 23 -5 27 -32 30 -29 3 -33 7 -33 33
0 27 3 29 35 29 32 0 35 2 35 30 l0 30 -60 0 -60 0 0 -155z"/>
<path d="M294 2408 c19 -153 24 -224 14 -235 -5 -7 -7 -21 -3 -32 5 -17 -7
-26 -82 -63 -48 -25 -118 -53 -156 -63 -37 -10 -67 -21 -67 -25 0 -15 61 -90
157 -190 54 -58 139 -149 189 -202 79 -86 90 -95 102 -80 7 9 38 56 68 105 31
48 60 87 64 87 4 0 18 -28 30 -62 195 -531 427 -879 770 -1155 373 -300 817
-455 1300 -455 404 0 772 104 1120 316 423 259 722 652 915 1208 25 73 47 134
49 136 2 1 39 -54 81 -123 43 -69 81 -125 85 -125 9 0 164 169 226 245 23 28
58 76 79 108 34 51 42 57 71 57 29 0 34 3 34 24 0 15 -7 26 -17 29 -17 4 -17
5 0 6 11 1 17 9 17 27 0 24 -3 26 -32 20 -25 -4 -64 6 -161 43 -70 26 -129 50
-132 53 -3 2 1 29 9 59 14 55 56 252 56 264 0 4 -19 -4 -42 -18 -24 -13 -131
-70 -239 -125 l-195 -102 -148 115 c-84 66 -148 109 -150 102 -2 -6 -12 -61
-21 -121 -71 -463 -278 -877 -583 -1168 -216 -205 -452 -328 -747 -389 -134
-28 -380 -31 -510 -5 -292 57 -542 187 -766 398 -171 161 -332 396 -438 637
-72 162 -149 454 -167 627 -4 34 -10 67 -14 74 -5 9 -52 -22 -153 -99 -142
-109 -163 -120 -183 -102 -11 11 -341 204 -397 233 l-40 20 7 -54z m271 -210
c88 -57 165 -107 171 -111 6 -4 57 37 115 92 57 55 105 98 106 97 1 -1 16 -69
33 -152 121 -582 417 -1051 835 -1323 107 -69 267 -148 369 -180 175 -56 302
-75 496 -76 183 0 259 10 419 52 233 61 478 189 644 336 190 169 401 499 512
800 46 127 99 313 115 405 6 39 15 72 19 72 4 0 20 -14 37 -31 16 -17 55 -53
87 -81 l57 -50 178 100 c208 118 217 122 209 96 -15 -48 -57 -224 -57 -236 0
-7 44 -30 102 -52 181 -69 170 -62 154 -94 -21 -41 -98 -137 -167 -209 -57
-59 -63 -62 -74 -46 -7 10 -43 55 -80 98 -61 74 -66 83 -63 122 l3 41 -26 -15
c-20 -12 -34 -38 -59 -112 -65 -194 -179 -439 -285 -611 -230 -374 -490 -617
-850 -796 -670 -333 -1457 -266 -2056 176 -113 83 -274 237 -365 350 -175 216
-348 531 -500 911 -53 132 -59 141 -65 112 -6 -29 -98 -142 -172 -211 l-25
-24 -58 74 c-32 40 -85 104 -118 141 -47 55 -57 71 -45 78 26 16 163 67 202
74 l38 7 -6 97 c-4 53 -11 111 -15 129 -10 38 -3 65 14 59 6 -3 83 -51 171
-109z"/>
<path d="M1658 693 c-87 -142 -98 -160 -98 -165 0 -3 19 -13 42 -24 30 -14 43
-15 46 -6 8 24 38 50 64 56 26 6 26 6 33 -67 l7 -72 45 -22 45 -21 -8 66 c-4
37 -8 85 -9 107 l0 39 65 17 c36 9 68 15 71 13 4 -2 16 -47 28 -99 22 -92 22
-97 6 -146 -9 -28 -15 -52 -14 -53 11 -9 73 -25 79 -21 5 3 16 27 25 53 14 41
25 53 95 101 44 30 80 57 80 61 0 4 -18 12 -40 19 -39 11 -42 11 -87 -24 -52
-40 -56 -38 -67 35 l-7 45 -92 44 -92 44 -70 -21 c-38 -11 -71 -19 -73 -17 -2
2 8 24 23 50 15 25 26 47 24 49 -2 1 -18 12 -36 24 l-32 22 -53 -87z"/>
<path d="M3471 661 l-33 -18 1 -148 c1 -82 3 -151 5 -152 2 -2 19 4 39 12 32
13 37 20 37 48 0 30 5 35 54 59 l53 26 21 -21 c21 -20 22 -20 62 -2 22 10 39
22 38 27 -6 16 -214 188 -228 187 -8 0 -30 -8 -49 -18z m109 -131 c0 -4 -12
-12 -27 -19 -33 -15 -43 -3 -43 53 l0 40 35 -34 c19 -19 35 -37 35 -40z"/>
<path d="M3141 534 c-62 -31 -91 -72 -91 -129 0 -91 64 -149 156 -142 62 4
137 39 159 74 16 23 16 32 4 80 -11 48 -15 54 -33 48 -12 -3 -42 -11 -68 -17
-47 -11 -54 -20 -42 -52 4 -11 14 -13 35 -9 25 5 29 2 29 -15 0 -26 -28 -42
-74 -42 -30 0 -40 6 -56 33 -27 44 -25 79 6 108 20 19 35 24 74 23 41 -2 49 1
61 23 11 20 11 26 -1 33 -29 19 -105 11 -159 -16z"/>
<path d="M2316 490 c-105 -33 -137 -180 -53 -244 89 -67 232 -50 266 33 17 41
16 103 -3 139 -29 55 -141 94 -210 72z m116 -77 c21 -18 24 -69 7 -107 -21
-46 -94 -53 -121 -12 -13 19 -9 76 7 106 13 25 22 30 52 30 20 0 45 -7 55 -17z"/>
<path d="M2894 475 c-3 -8 2 -61 11 -117 27 -174 21 -160 63 -152 21 3 40 9
44 13 4 3 -4 65 -17 136 -14 72 -25 131 -25 133 0 1 -16 2 -35 2 -22 0 -38 -6
-41 -15z"/>
<path d="M2640 452 c-45 -22 -65 -61 -49 -95 14 -31 40 -45 110 -60 43 -10 54
-16 54 -32 0 -26 -49 -32 -97 -12 -32 13 -36 13 -63 -9 l-29 -23 39 -17 c64
-27 135 -30 189 -6 54 24 71 55 55 101 -11 30 -40 46 -129 68 -48 12 -46 37 2
41 20 2 46 -1 56 -7 15 -8 24 -5 42 14 l22 23 -30 16 c-41 21 -128 20 -172 -2z"/>
<path d="M2190 1596 c-6 -8 -10 -30 -8 -48 3 -30 0 -33 -42 -49 -25 -9 -57
-28 -72 -42 -14 -15 -46 -36 -71 -48 -41 -20 -45 -25 -44 -55 2 -18 13 -44 25
-57 17 -18 21 -31 16 -54 -5 -25 -1 -34 17 -47 31 -21 46 -20 94 4 56 29 80
20 95 -34 9 -34 9 -49 0 -66 -11 -20 -16 -21 -93 -16 -287 20 -304 19 -321 -5
-21 -30 -20 -55 0 -63 10 -4 47 -11 83 -16 53 -8 74 -6 108 6 39 15 48 15 114
0 39 -9 113 -16 163 -16 50 0 128 -5 172 -11 71 -10 86 -10 114 5 36 17 165
23 174 7 12 -19 179 -23 283 -7 91 14 117 14 250 1 159 -16 185 -13 251 26 66
40 82 59 82 101 0 54 -21 89 -72 123 -24 15 -77 54 -118 85 -41 31 -89 64
-107 73 -40 21 -148 22 -223 2 -79 -21 -98 -20 -106 9 -16 66 57 105 194 106
103 0 179 -17 255 -58 52 -28 55 -36 66 -144 2 -12 98 -78 115 -78 12 0 16 10
16 42 0 33 -10 55 -47 111 -57 83 -100 122 -168 153 -53 25 -209 54 -286 54
-69 0 -147 -29 -191 -71 -36 -34 -38 -39 -38 -98 l0 -63 -42 7 c-65 11 -139
48 -231 113 -95 68 -161 98 -234 106 -29 3 -62 10 -72 16 -28 15 -87 12 -101
-4z m1050 -35 c82 -14 169 -49 209 -87 49 -44 34 -52 -25 -14 -67 42 -132 60
-244 67 -272 17 -326 -106 -128 -294 69 -64 117 -89 236 -119 114 -29 147 -30
212 -5 43 16 52 17 57 5 9 -24 -5 -44 -44 -61 -34 -14 -47 -14 -142 2 -169 28
-261 66 -344 143 -68 64 -128 155 -135 204 -9 70 41 133 126 158 37 11 156 12
222 1z m-988 -81 c33 -1 58 -23 58 -52 0 -14 5 -39 11 -56 12 -35 -5 -92 -28
-92 -7 0 -13 -7 -13 -15 0 -8 -5 -15 -12 -15 -6 0 -19 -7 -29 -16 -37 -33
-130 11 -97 44 22 22 -10 37 -85 42 -67 5 -72 7 -73 28 -1 17 10 32 40 53 22
16 52 37 65 47 39 28 104 50 123 40 9 -4 27 -8 40 -8z m1021 -108 c46 -21 251
-171 266 -195 9 -14 6 -20 -21 -37 -115 -70 -346 -4 -478 136 -34 37 -58 70
-53 75 11 11 149 37 203 38 25 0 62 -7 83 -17z m-338 -102 c26 -39 68 -87 92
-107 l45 -37 -39 -20 c-32 -17 -57 -21 -158 -21 -132 -1 -147 -5 -163 -41 -10
-22 -18 -24 -72 -24 -58 0 -60 1 -60 26 0 18 4 25 14 21 17 -7 36 11 36 35 0
12 5 15 16 11 14 -5 16 -1 12 20 -3 15 -1 27 5 27 5 0 15 8 22 17 11 14 10 23
-1 45 -13 25 -13 28 2 28 10 0 14 6 11 14 -3 8 1 17 9 20 11 4 12 10 4 25 -5
11 -10 22 -10 25 0 3 42 6 93 6 l93 0 49 -70z m-816 -26 c1 -1 0 -8 -4 -14 -5
-8 -22 -10 -47 -7 -45 6 -53 11 -43 26 5 9 82 5 94 -5z m171 -139 c13 -14 30
-25 38 -25 9 0 23 -6 31 -14 43 -37 128 -41 179 -10 20 14 22 13 22 -9 0 -13
-9 -32 -20 -42 -20 -18 -28 -18 -128 -7 -60 7 -138 12 -176 12 -37 0 -105 7
-152 17 -68 13 -89 14 -107 4 -13 -7 -41 -11 -63 -9 -30 2 -39 7 -38 21 1 9
-2 17 -7 17 -5 0 -9 -7 -9 -15 0 -8 -4 -15 -10 -15 -5 0 -10 10 -10 23 -1 21
-1 21 -15 3 -17 -23 -29 -17 -19 9 6 15 15 17 73 11 36 -4 124 -8 196 -9 l130
-2 20 32 c24 39 35 40 65 8z m930 -39 c30 -8 87 -20 125 -26 39 -6 79 -13 89
-17 19 -5 19 -6 1 -19 -24 -18 -73 -18 -221 2 -111 15 -129 15 -223 0 -135
-21 -131 -22 -131 15 0 35 -23 36 -28 1 -4 -23 -17 -29 -27 -12 -4 6 0 22 9
35 14 21 23 23 118 27 87 2 108 6 133 25 29 21 30 21 65 3 20 -10 60 -25 90
-34z m-429 -31 c-18 -39 -23 -41 -46 -18 -16 16 -16 18 5 35 12 10 30 18 40
18 16 0 16 -2 1 -35z"/>
<path d="M2084 1419 c-14 -23 14 -33 58 -19 36 11 40 14 23 21 -29 11 -73 11
-81 -2z"/>
</g>
</svg>
